<svg width="920" height="720" viewBox="0 0 920 720" fill="none" xmlns="http://www.w3.org/2000/svg">
  <rect width="920" height="720" rx="34" fill="url(#bg)"/>
  <rect x="66" y="88" width="788" height="544" rx="28" fill="#0B2133" stroke="#234D72" stroke-width="2"/>
  <rect x="112" y="136" width="304" height="448" rx="24" fill="#102C43"/>
  <rect x="450" y="136" width="358" height="146" rx="24" fill="#0F2A40"/>
  <rect x="450" y="314" width="358" height="270" rx="24" fill="#0F2A40"/>

  <rect x="144" y="174" width="240" height="24" rx="12" fill="#1E4669"/>
  <rect x="144" y="214" width="188" height="16" rx="8" fill="#173650"/>
  <rect x="144" y="278" width="88" height="88" rx="18" fill="url(#card1)"/>
  <rect x="248" y="278" width="104" height="88" rx="18" fill="#153A56"/>
  <rect x="144" y="394" width="208" height="14" rx="7" fill="#173650"/>
  <rect x="144" y="426" width="178" height="14" rx="7" fill="#173650"/>
  <rect x="144" y="472" width="240" height="72" rx="18" fill="#14334E"/>
  <circle cx="204" cy="508" r="20" fill="#44D6C2" fill-opacity="0.15"/>
  <circle cx="204" cy="508" r="10" fill="#44D6C2"/>
  <path d="M240 507H340" stroke="#44D6C2" stroke-width="8" stroke-linecap="round"/>

  <rect x="484" y="168" width="242" height="24" rx="12" fill="#1E4669"/>
  <rect x="484" y="210" width="156" height="16" rx="8" fill="#173650"/>
  <rect x="670" y="168" width="104" height="66" rx="18" fill="url(#card2)"/>
  <circle cx="722" cy="201" r="16" fill="white" fill-opacity="0.16"/>
  <circle cx="722" cy="201" r="8" fill="#E9FFFB"/>

  <rect x="484" y="348" width="148" height="170" rx="20" fill="#13344F"/>
  <rect x="652" y="348" width="122" height="170" rx="20" fill="#13344F"/>
  <circle cx="558" cy="434" r="46" fill="url(#card3)"/>
  <path d="M558 404V434L582 452" stroke="white" stroke-width="8" stroke-linecap="round"/>
  <rect x="690" y="388" width="48" height="90" rx="16" fill="#1E4669"/>
  <rect x="504" y="548" width="270" height="16" rx="8" fill="#173650"/>
  <rect x="504" y="582" width="214" height="12" rx="6" fill="#173650"/>

  <path d="M416 360H462" stroke="#2AD0BE" stroke-width="4"/>
  <path d="M416 360C439 360 439 225 462 225" stroke="#2AD0BE" stroke-width="4"/>
  <path d="M416 360C439 360 439 434 462 434" stroke="#2AD0BE" stroke-width="4"/>
  <circle cx="416" cy="360" r="12" fill="#2AD0BE"/>
  <circle cx="462" cy="225" r="12" fill="#2E83FF"/>
  <circle cx="462" cy="360" r="12" fill="#FF8E4B"/>
  <circle cx="462" cy="434" r="12" fill="#7846FF"/>

  <circle cx="810" cy="114" r="22" fill="#183A57"/>
  <circle cx="110" cy="610" r="28" fill="#163856"/>
  <circle cx="110" cy="610" r="10" fill="#2E83FF"/>

  <defs>
    <linearGradient id="bg" x1="52" y1="48" x2="844" y2="660" gradientUnits="userSpaceOnUse">
      <stop stop-color="#143856"/>
      <stop offset="1" stop-color="#091D2F"/>
    </linearGradient>
    <linearGradient id="card1" x1="144" y1="278" x2="232" y2="366" gradientUnits="userSpaceOnUse">
      <stop stop-color="#2AD0BE"/>
      <stop offset="1" stop-color="#2E83FF"/>
    </linearGradient>
    <linearGradient id="card2" x1="670" y1="168" x2="774" y2="234" gradientUnits="userSpaceOnUse">
      <stop stop-color="#2E83FF"/>
      <stop offset="1" stop-color="#7A4BFF"/>
    </linearGradient>
    <linearGradient id="card3" x1="512" y1="388" x2="604" y2="480" gradientUnits="userSpaceOnUse">
      <stop stop-color="#24D0B7"/>
      <stop offset="1" stop-color="#1A9BE8"/>
    </linearGradient>
  </defs>
</svg>
