<svg width="840" height="620" viewBox="0 0 840 620" fill="none" xmlns="http://www.w3.org/2000/svg">
  <rect width="840" height="620" rx="30" fill="url(#bg)"/>
  <circle cx="420" cy="310" r="196" stroke="url(#ring1)" stroke-width="2" stroke-dasharray="10 12"/>
  <circle cx="420" cy="310" r="138" stroke="url(#ring2)" stroke-width="2" stroke-dasharray="8 10"/>
  <circle cx="420" cy="310" r="84" fill="#10293F"/>
  <circle cx="420" cy="310" r="42" fill="url(#core)"/>

  <g opacity="0.96">
    <rect x="118" y="126" width="178" height="108" rx="22" fill="#112D45" stroke="#1F4A6F" stroke-width="2"/>
    <rect x="144" y="154" width="98" height="16" rx="8" fill="#1C4568"/>
    <rect x="144" y="186" width="62" height="12" rx="6" fill="#173650"/>
    <circle cx="252" cy="190" r="18" fill="#24D0B7" fill-opacity="0.16"/>
    <circle cx="252" cy="190" r="8" fill="#24D0B7"/>
  </g>

  <g opacity="0.96">
    <rect x="536" y="108" width="186" height="124" rx="22" fill="#112D45" stroke="#1F4A6F" stroke-width="2"/>
    <rect x="562" y="138" width="108" height="16" rx="8" fill="#1C4568"/>
    <rect x="562" y="170" width="84" height="12" rx="6" fill="#173650"/>
    <rect x="562" y="196" width="132" height="12" rx="6" fill="#173650"/>
  </g>

  <g opacity="0.96">
    <rect x="130" y="390" width="206" height="116" rx="22" fill="#112D45" stroke="#1F4A6F" stroke-width="2"/>
    <circle cx="182" cy="448" r="24" fill="#2E83FF" fill-opacity="0.18"/>
    <path d="M182 436V448L194 456" stroke="#2E83FF" stroke-width="6" stroke-linecap="round"/>
    <rect x="222" y="430" width="72" height="14" rx="7" fill="#1C4568"/>
    <rect x="222" y="458" width="92" height="12" rx="6" fill="#173650"/>
  </g>

  <g opacity="0.96">
    <rect x="508" y="386" width="216" height="122" rx="22" fill="#112D45" stroke="#1F4A6F" stroke-width="2"/>
    <rect x="536" y="416" width="110" height="16" rx="8" fill="#1C4568"/>
    <rect x="536" y="448" width="154" height="12" rx="6" fill="#173650"/>
    <rect x="536" y="472" width="138" height="12" rx="6" fill="#173650"/>
  </g>

  <path d="M296 182L364 244" stroke="url(#line)" stroke-width="4"/>
  <path d="M544 170L478 240" stroke="url(#line)" stroke-width="4"/>
  <path d="M318 440L372 374" stroke="url(#line)" stroke-width="4"/>
  <path d="M508 442L468 382" stroke="url(#line)" stroke-width="4"/>

  <circle cx="364" cy="244" r="10" fill="#2E83FF"/>
  <circle cx="478" cy="240" r="10" fill="#24D0B7"/>
  <circle cx="372" cy="374" r="10" fill="#FF8E4B"/>
  <circle cx="468" cy="382" r="10" fill="#7A4BFF"/>

  <circle cx="734" cy="82" r="18" fill="#183A57"/>
  <circle cx="118" cy="554" r="26" fill="#14324E"/>
  <circle cx="118" cy="554" r="8" fill="#24D0B7"/>

  <defs>
    <linearGradient id="bg" x1="48" y1="42" x2="780" y2="556" gradientUnits="userSpaceOnUse">
      <stop stop-color="#143856"/>
      <stop offset="1" stop-color="#091D2F"/>
    </linearGradient>
    <linearGradient id="core" x1="390" y1="280" x2="450" y2="340" gradientUnits="userSpaceOnUse">
      <stop stop-color="#24D0B7"/>
      <stop offset="1" stop-color="#2E83FF"/>
    </linearGradient>
    <linearGradient id="ring1" x1="224" y1="114" x2="616" y2="506" gradientUnits="userSpaceOnUse">
      <stop stop-color="#24D0B7"/>
      <stop offset="1" stop-color="#2E83FF"/>
    </linearGradient>
    <linearGradient id="ring2" x1="282" y1="172" x2="558" y2="448" gradientUnits="userSpaceOnUse">
      <stop stop-color="#2E83FF"/>
      <stop offset="1" stop-color="#7A4BFF"/>
    </linearGradient>
    <linearGradient id="line" x1="296" y1="170" x2="544" y2="442" gradientUnits="userSpaceOnUse">
      <stop stop-color="#24D0B7"/>
      <stop offset="1" stop-color="#2E83FF"/>
    </linearGradient>
  </defs>
</svg>
